{
  "accessors": [
    {
      "bufferView": 2,
      "componentType": 5126,
      "count": 125,
      "max": [
        -5.5157632827758789,
        5.7655887603759766,
        -2.8361203670501709
      ],
      "min": [
        -9.4461469650268555,
        3.7346630096435547,
        -3.5634636878967285
      ],
      "type": "VEC3"
    },
    {
      "bufferView": 2,
      "byteOffset": 1500,
      "componentType": 5126,
      "count": 125,
      "max": [
        0.99990415573120117,
        0.99990403652191162,
        0.00029436178738251328
      ],
      "min": [
        -0.99947386980056763,
        -0.99990415573120117,
        -1
      ],
      "type": "VEC3"
    },
    {
      "bufferView": 3,
      "componentType": 5126,
      "count": 125,
      "max": [
        0.9999040961265564,
        0.99947386980056763,
        0.0031291593331843615,
        1
      ],
      "min": [
        -0.9999040961265564,
        -0.99990415573120117,
        -0.72441422939300537,
        -1
      ],
      "type": "VEC4"
    },
    {
      "bufferView": 1,
      "componentType": 5126,
      "count": 125,
      "max": [
        0.54652023315429688,
        0.25068390369415283
      ],
      "min": [
        0.28621590137481689,
        0.19287526607513428
      ],
      "type": "VEC2"
    },
    {
      "bufferView": 1,
      "byteOffset": 1000,
      "componentType": 5126,
      "count": 125,
      "max": [
        0.54652023315429688,
        0.25068390369415283
      ],
      "min": [
        0.28621590137481689,
        0.19287526607513428
      ],
      "type": "VEC2"
    },
    {
      "bufferView": 1,
      "byteOffset": 2000,
      "componentType": 5126,
      "count": 125,
      "max": [
        0.54652023315429688,
        0.25068390369415283
      ],
      "min": [
        0.28621590137481689,
        0.19287526607513428
      ],
      "type": "VEC2"
    },
    {
      "bufferView": 1,
      "byteOffset": 3000,
      "componentType": 5126,
      "count": 125,
      "max": [
        0.54652023315429688,
        0.25068390369415283
      ],
      "min": [
        0.28621590137481689,
        0.19287526607513428
      ],
      "type": "VEC2"
    },
    {
      "bufferView": 1,
      "byteOffset": 4000,
      "componentType": 5126,
      "count": 125,
      "max": [
        0.54652023315429688,
        0.25068390369415283
      ],
      "min": [
        0.28621590137481689,
        0.19287526607513428
      ],
      "type": "VEC2"
    },
    {
      "bufferView": 0,
      "componentType": 5125,
      "count": 348,
      "max": [
        124
      ],
      "min": [
        0
      ],
      "type": "SCALAR"
    },
    {
      "bufferView": 2,
      "byteOffset": 3000,
      "componentType": 5126,
      "count": 20,
      "max": [
        6.5124568939208984,
        -3.7339639663696289,
        0.8443293571472168
      ],
      "min": [
        5.5106391906738281,
        -7.4659519195556641,
        -0.16932392120361328
      ],
      "type": "VEC3"
    },
    {
      "bufferView": 2,
      "byteOffset": 3240,
      "componentType": 5126,
      "count": 20,
      "max": [
        0.98924797773361206,
        0.07436525821685791,
        0.99997228384017944
      ],
      "min": [
        -0.99720817804336548,
        -0.45891270041465759,
        -0.99997228384017944
      ],
      "type": "VEC3"
    },
    {
      "bufferView": 3,
      "byteOffset": 2000,
      "componentType": 5126,
      "count": 20,
      "max": [
        0.0070467791520059109,
        0.097685843706130981,
        -0.0068346629850566387,
        1
      ],
      "min": [
        -0.99519509077072144,
        -0.0036253356374800205,
        -0.99997520446777344,
        -1
      ],
      "type": "VEC4"
    },
    {
      "bufferView": 1,
      "byteOffset": 5000,
      "componentType": 5126,
      "count": 20,
      "max": [
        0.60495805740356445,
        0.45467329025268555
      ],
      "min": [
        0.56561422348022461,
        0.33340495824813843
      ],
      "type": "VEC2"
    },
    {
      "bufferView": 1,
      "byteOffset": 5160,
      "componentType": 5126,
      "count": 20,
      "max": [
        0.60495805740356445,
        0.45467329025268555
      ],
      "min": [
        0.56561422348022461,
        0.33340495824813843
      ],
      "type": "VEC2"
    },
    {
      "bufferView": 1,
      "byteOffset": 5320,
      "componentType": 5126,
      "count": 20,
      "max": [
        0.60495805740356445,
        0.45467329025268555
      ],
      "min": [
        0.56561422348022461,
        0.33340495824813843
      ],
      "type": "VEC2"
    },
    {
      "bufferView": 1,
      "byteOffset": 5480,
      "componentType": 5126,
      "count": 20,
      "max": [
        0.60495805740356445,
        0.45467329025268555
      ],
      "min": [
        0.56561422348022461,
        0.33340495824813843
      ],
      "type": "VEC2"
    },
    {
      "bufferView": 1,
      "byteOffset": 5640,
      "componentType": 5126,
      "count": 20,
      "max": [
        0.60495805740356445,
        0.45467329025268555
      ],
      "min": [
        0.56561422348022461,
        0.33340495824813843
      ],
      "type": "VEC2"
    },
    {
      "bufferView": 0,
      "byteOffset": 1392,
      "componentType": 5125,
      "count": 30,
      "max": [
        19
      ],
      "min": [
        0
      ],
      "type": "SCALAR"
    },
    {
      "bufferView": 2,
      "byteOffset": 3480,
      "componentType": 5126,
      "count": 411,
      "max": [
        13.265873908996582,
        2.72906494140625,
        2.6901922225952148
      ],
      "min": [
        6.6210947036743164,
        -29.783039093017578,
        -1.761479377746582
      ],
      "type": "VEC3"
    },
    {
      "bufferView": 2,
      "byteOffset": 8412,
      "componentType": 5126,
      "count": 411,
      "max": [
        1,
        1,
        1
      ],
      "min": [
        -1,
        -1,
        -1
      ],
      "type": "VEC3"
    },
    {
      "bufferView": 3,
      "byteOffset": 2320,
      "componentType": 5126,
      "count": 411,
      "max": [
        1,
        0.99645721912384033,
        0.39602646231651306,
        1
      ],
      "min": [
        -0.38268759846687317,
        -0.99644935131072998,
        -1,
        -1
      ],
      "type": "VEC4"
    },
    {
      "bufferView": 1,
      "byteOffset": 5800,
      "componentType": 5126,
      "count": 411,
      "max": [
        0.39096593856811523,
        0.67712438106536865
      ],
      "min": [
        0.1497272253036499,
        0.26968121528625488
      ],
      "type": "VEC2"
    },
    {
      "bufferView": 1,
      "byteOffset": 9088,
      "componentType": 5126,
      "count": 411,
      "max": [
        0.39096593856811523,
        0.67712438106536865
      ],
      "min": [
        0.1497272253036499,
        0.26968121528625488
      ],
      "type": "VEC2"
    },
    {
      "bufferView": 1,
      "byteOffset": 12376,
      "componentType": 5126,
      "count": 411,
      "max": [
        0.39096593856811523,
        0.67712438106536865
      ],
      "min": [
        0.1497272253036499,
        0.26968121528625488
      ],
      "type": "VEC2"
    },
    {
      "bufferView": 1,
      "byteOffset": 15664,
      "componentType": 5126,
      "count": 411,
      "max": [
        0.39096593856811523,
        0.67712438106536865
      ],
      "min": [
        0.1497272253036499,
        0.26968121528625488
      ],
      "type": "VEC2"
    },
    {
      "bufferView": 1,
      "byteOffset": 18952,
      "componentType": 5126,
      "count": 411,
      "max": [
        0.39096593856811523,
        0.67712438106536865
      ],
      "min": [
        0.1497272253036499,
        0.26968121528625488
      ],
      "type": "VEC2"
    },
    {
      "bufferView": 0,
      "byteOffset": 1512,
      "componentType": 5125,
      "count": 1356,
      "max": [
        410
      ],
      "min": [
        0
      ],
      "type": "SCALAR"
    },
    {
      "bufferView": 2,
      "byteOffset": 13344,
      "componentType": 5126,
      "count": 60,
      "max": [
        2.5406126976013184,
        3.7735977172851562,
        0.34039974212646484
      ],
      "min": [
        -0.85593247413635254,
        -0.99532699584960938,
        -0.33678627014160156
      ],
      "type": "VEC3"
    },
    {
      "bufferView": 2,
      "byteOffset": 14064,
      "componentType": 5126,
      "count": 60,
      "max": [
        1,
        0.85311561822891235,
        1
      ],
      "min": [
        -1,
        -1,
        -1
      ],
      "type": "VEC3"
    },
    {
      "bufferView": 3,
      "byteOffset": 8896,
      "componentType": 5126,
      "count": 60,
      "max": [
        0.02693520113825798,
        0.9997679591178894,
        1,
        1
      ],
      "min": [
        -4.2249325815646444e-06,
        -0.000113091547973454,
        -1,
        -1
      ],
      "type": "VEC4"
    },
    {
      "bufferView": 1,
      "byteOffset": 22240,
      "componentType": 5126,
      "count": 60,
      "max": [
        0.63845968246459961,
        0.49991452693939209
      ],
      "min": [
        0.52125167846679688,
        0.25140988826751709
      ],
      "type": "VEC2"
    },
    {
      "bufferView": 1,
      "byteOffset": 22720,
      "componentType": 5126,
      "count": 60,
      "max": [
        0.63845968246459961,
        0.49991452693939209
      ],
      "min": [
        0.52125167846679688,
        0.25140988826751709
      ],
      "type": "VEC2"
    },
    {
      "bufferView": 1,
      "byteOffset": 23200,
      "componentType": 5126,
      "count": 60,
      "max": [
        0.63845968246459961,
        0.49991452693939209
      ],
      "min": [
        0.52125167846679688,
        0.25140988826751709
      ],
      "type": "VEC2"
    },
    {
      "bufferView": 1,
      "byteOffset": 23680,
      "componentType": 5126,
      "count": 60,
      "max": [
        0.63845968246459961,
        0.49991452693939209
      ],
      "min": [
        0.52125167846679688,
        0.25140988826751709
      ],
      "type": "VEC2"
    },
    {
      "bufferView": 1,
      "byteOffset": 24160,
      "componentType": 5126,
      "count": 60,
      "max": [
        0.63845968246459961,
        0.49991452693939209
      ],
      "min": [
        0.52125167846679688,
        0.25140988826751709
      ],
      "type": "VEC2"
    },
    {
      "bufferView": 0,
      "byteOffset": 6936,
      "componentType": 5125,
      "count": 150,
      "max": [
        59
      ],
      "min": [
        0
      ],
      "type": "SCALAR"
    },
    {
      "bufferView": 2,
      "byteOffset": 14784,
      "componentType": 5126,
      "count": 375,
      "max": [
        10.747657775878906,
        12.424861907958984,
        2.2974758148193359
      ],
      "min": [
        -0.32984870672225952,
        5.1646003723144531,
        -3.753239631652832
      ],
      "type": "VEC3"
    },
    {
      "bufferView": 2,
      "byteOffset": 19284,
      "componentType": 5126,
      "count": 375,
      "max": [
        1,
        1,
        1
      ],
      "min": [
        -1,
        -1,
        -1
      ],
      "type": "VEC3"
    },
    {
      "bufferView": 3,
      "byteOffset": 9856,
      "componentType": 5126,
      "count": 375,
      "max": [
        0.9999316930770874,
        1,
        0.98772251605987549,
        1
      ],
      "min": [
        -1,
        -0.99432486295700073,
        -0.21985343098640442,
        1
      ],
      "type": "VEC4"
    },
    {
      "bufferView": 1,
      "byteOffset": 24640,
      "componentType": 5126,
      "count": 375,
      "max": [
        0.88839101791381836,
        0.68495821952819824
      ],
      "min": [
        0.38484716415405273,
        0.3204505443572998
      ],
      "type": "VEC2"
    },
    {
      "bufferView": 1,
      "byteOffset": 27640,
      "componentType": 5126,
      "count": 375,
      "max": [
        0.88839101791381836,
        0.68495821952819824
      ],
      "min": [
        0.38484716415405273,
        0.3204505443572998
      ],
      "type": "VEC2"
    },
    {
      "bufferView": 1,
      "byteOffset": 30640,
      "componentType": 5126,
      "count": 375,
      "max": [
        0.88839101791381836,
        0.68495821952819824
      ],
      "min": [
        0.38484716415405273,
        0.3204505443572998
      ],
      "type": "VEC2"
    },
    {
      "bufferView": 1,
      "byteOffset": 33640,
      "componentType": 5126,
      "count": 375,
      "max": [
        0.88839101791381836,
        0.68495821952819824
      ],
      "min": [
        0.38484716415405273,
        0.3204505443572998
      ],
      "type": "VEC2"
    },
    {
      "bufferView": 1,
      "byteOffset": 36640,
      "componentType": 5126,
      "count": 375,
      "max": [
        0.88839101791381836,
        0.68495821952819824
      ],
      "min": [
        0.38484716415405273,
        0.3204505443572998
      ],
      "type": "VEC2"
    },
    {
      "bufferView": 0,
      "byteOffset": 7536,
      "componentType": 5125,
      "count": 1245,
      "max": [
        374
      ],
      "min": [
        0
      ],
      "type": "SCALAR"
    },
    {
      "bufferView": 2,
      "byteOffset": 23784,
      "componentType": 5126,
      "count": 7082,
      "max": [
        40.053726196289062,
        13.57448673248291,
        4.2395753860473633
      ],
      "min": [
        -18.311704635620117,
        -15.770700454711914,
        -4.3010358810424805
      ],
      "type": "VEC3"
    },
    {
      "bufferView": 2,
      "byteOffset": 108768,
      "componentType": 5126,
      "count": 7082,
      "max": [
        1,
        1,
        1
      ],
      "min": [
        -1,
        -1,
        -1
      ],
      "type": "VEC3"
    },
    {
      "bufferView": 3,
      "byteOffset": 15856,
      "componentType": 5126,
      "count": 7082,
      "max": [
        1,
        1,
        1,
        1
      ],
      "min": [
        -1,
        -1,
        -1,
        -1
      ],
      "type": "VEC4"
    },
    {
      "bufferView": 1,
      "byteOffset": 39640,
      "componentType": 5126,
      "count": 7082,
      "max": [
        0.99934720993041992,
        0.99902313947677612
      ],
      "min": [
        0.00065267086029052734,
        0.00090086460113525391
      ],
      "type": "VEC2"
    },
    {
      "bufferView": 1,
      "byteOffset": 96296,
      "componentType": 5126,
      "count": 7082,
      "max": [
        0.99934720993041992,
        0.99902313947677612
      ],
      "min": [
        0.00065267086029052734,
        0.00090086460113525391
      ],
      "type": "VEC2"
    },
    {
      "bufferView": 1,
      "byteOffset": 152952,
      "componentType": 5126,
      "count": 7082,
      "max": [
        0.99934720993041992,
        0.99902313947677612
      ],
      "min": [
        0.00065267086029052734,
        0.00090086460113525391
      ],
      "type": "VEC2"
    },
    {
      "bufferView": 1,
      "byteOffset": 209608,
      "componentType": 5126,
      "count": 7082,
      "max": [
        0.99934720993041992,
        0.99902313947677612
      ],
      "min": [
        0.00065267086029052734,
        0.00090086460113525391
      ],
      "type": "VEC2"
    },
    {
      "bufferView": 1,
      "byteOffset": 266264,
      "componentType": 5126,
      "count": 7082,
      "max": [
        0.99934720993041992,
        0.99902313947677612
      ],
      "min": [
        0.00065267086029052734,
        0.00090086460113525391
      ],
      "type": "VEC2"
    },
    {
      "bufferView": 0,
      "byteOffset": 12516,
      "componentType": 5125,
      "count": 21798,
      "max": [
        7081
      ],
      "min": [
        0
      ],
      "type": "SCALAR"
    }
  ],
  "asset": {
    "extras": {
      "author": "J.J.West (https://sketchfab.com/jw202471)",
      "license": "CC-BY-4.0 (http://creativecommons.org/licenses/by/4.0/)",
      "source": "https://sketchfab.com/3d-models/submachine-gun-85d319704eba40678af7e64df81ec58d",
      "title": "Submachine Gun"
    },
    "generator": "Sketchfab-5.58.0",
    "version": "2.0"
  },
  "bufferViews": [
    {
      "buffer": 0,
      "byteLength": 99708,
      "byteOffset": 0,
      "name": "floatBufferViews",
      "target": 34963
    },
    {
      "buffer": 0,
      "byteLength": 322920,
      "byteOffset": 99708,
      "byteStride": 8,
      "name": "floatBufferViews",
      "target": 34962
    },
    {
      "buffer": 0,
      "byteLength": 193752,
      "byteOffset": 422628,
      "byteStride": 12,
      "name": "floatBufferViews",
      "target": 34962
    },
    {
      "buffer": 0,
      "byteLength": 129168,
      "byteOffset": 616380,
      "byteStride": 16,
      "name": "floatBufferViews",
      "target": 34962
    }
  ],
  "buffers": [
    {
      "byteLength": 745548,
      "uri": "scene.bin"
    }
  ],
  "images": [
    {
      "uri": "textures/StingrayPBS1_baseColor.jpeg"
    },
    {
      "uri": "textures/StingrayPBS1_metallicRoughness.png"
    },
    {
      "uri": "textures/StingrayPBS1_normal.png"
    }
  ],
  "materials": [
    {
      "doubleSided": true,
      "name": "StingrayPBS1",
      "normalTexture": {
        "index": 2,
        "scale": 1,
        "texCoord": 0
      },
      "pbrMetallicRoughness": {
        "baseColorFactor": [
          1,
          1,
          1,
          1
        ],
        "baseColorTexture": {
          "index": 0,
          "texCoord": 0
        },
        "metallicFactor": 1,
        "metallicRoughnessTexture": {
          "index": 1,
          "texCoord": 0
        },
        "roughnessFactor": 1
      }
    }
  ],
  "meshes": [
    {
      "name": "safety_low_StingrayPBS1_0",
      "primitives": [
        {
          "attributes": {
            "NORMAL": 1,
            "POSITION": 0,
            "TANGENT": 2,
            "TEXCOORD_0": 3,
            "TEXCOORD_1": 4,
            "TEXCOORD_2": 5,
            "TEXCOORD_3": 6,
            "TEXCOORD_4": 7
          },
          "indices": 8,
          "material": 0,
          "mode": 4
        }
      ]
    },
    {
      "name": "magazine_release_StingrayPBS1_0",
      "primitives": [
        {
          "attributes": {
            "NORMAL": 10,
            "POSITION": 9,
            "TANGENT": 11,
            "TEXCOORD_0": 12,
            "TEXCOORD_1": 13,
            "TEXCOORD_2": 14,
            "TEXCOORD_3": 15,
            "TEXCOORD_4": 16
          },
          "indices": 17,
          "material": 0,
          "mode": 4
        }
      ]
    },
    {
      "name": "magazine_StingrayPBS1_0",
      "primitives": [
        {
          "attributes": {
            "NORMAL": 19,
            "POSITION": 18,
            "TANGENT": 20,
            "TEXCOORD_0": 21,
            "TEXCOORD_1": 22,
            "TEXCOORD_2": 23,
            "TEXCOORD_3": 24,
            "TEXCOORD_4": 25
          },
          "indices": 26,
          "material": 0,
          "mode": 4
        }
      ]
    },
    {
      "name": "trigger__StingrayPBS1_0",
      "primitives": [
        {
          "attributes": {
            "NORMAL": 28,
            "POSITION": 27,
            "TANGENT": 29,
            "TEXCOORD_0": 30,
            "TEXCOORD_1": 31,
            "TEXCOORD_2": 32,
            "TEXCOORD_3": 33,
            "TEXCOORD_4": 34
          },
          "indices": 35,
          "material": 0,
          "mode": 4
        }
      ]
    },
    {
      "name": "chamber_StingrayPBS1_0",
      "primitives": [
        {
          "attributes": {
            "NORMAL": 37,
            "POSITION": 36,
            "TANGENT": 38,
            "TEXCOORD_0": 39,
            "TEXCOORD_1": 40,
            "TEXCOORD_2": 41,
            "TEXCOORD_3": 42,
            "TEXCOORD_4": 43
          },
          "indices": 44,
          "material": 0,
          "mode": 4
        }
      ]
    },
    {
      "name": "Body_StingrayPBS1_0",
      "primitives": [
        {
          "attributes": {
            "NORMAL": 46,
            "POSITION": 45,
            "TANGENT": 47,
            "TEXCOORD_0": 48,
            "TEXCOORD_1": 49,
            "TEXCOORD_2": 50,
            "TEXCOORD_3": 51,
            "TEXCOORD_4": 52
          },
          "indices": 53,
          "material": 0,
          "mode": 4
        }
      ]
    }
  ],
  "nodes": [
    {
      "children": [
        1
      ],
      "name": "RootNode (gltf orientation matrix)",
      "rotation": [
        -0.70710678118654746,
        -0,
        -0,
        0.70710678118654757
      ]
    },
    {
      "children": [
        2
      ],
      "name": "RootNode (model correction matrix)"
    },
    {
      "children": [
        3
      ],
      "matrix": [
        1,
        0,
        0,
        0,
        0,
        0,
        1,
        0,
        0,
        -1,
        0,
        0,
        0,
        0,
        0,
        1
      ],
      "name": "7379ea21fba14b68bdc3aedb68ba6f43.fbx"
    },
    {
      "children": [
        4,
        6,
        8,
        10,
        12,
        14
      ],
      "name": "RootNode"
    },
    {
      "children": [
        5
      ],
      "name": "safety_low"
    },
    {
      "mesh": 0,
      "name": "safety_low_StingrayPBS1_0"
    },
    {
      "children": [
        7
      ],
      "name": "magazine_release"
    },
    {
      "mesh": 1,
      "name": "magazine_release_StingrayPBS1_0"
    },
    {
      "children": [
        9
      ],
      "name": "magazine"
    },
    {
      "mesh": 2,
      "name": "magazine_StingrayPBS1_0"
    },
    {
      "children": [
        11
      ],
      "name": "trigger_"
    },
    {
      "mesh": 3,
      "name": "trigger__StingrayPBS1_0"
    },
    {
      "children": [
        13
      ],
      "name": "chamber"
    },
    {
      "mesh": 4,
      "name": "chamber_StingrayPBS1_0"
    },
    {
      "children": [
        15
      ],
      "name": "Body"
    },
    {
      "mesh": 5,
      "name": "Body_StingrayPBS1_0"
    }
  ],
  "samplers": [
    {
      "magFilter": 9729,
      "minFilter": 9987,
      "wrapS": 10497,
      "wrapT": 10497
    }
  ],
  "scene": 0,
  "scenes": [
    {
      "name": "OSG_Scene",
      "nodes": [
        0
      ]
    }
  ],
  "textures": [
    {
      "sampler": 0,
      "source": 0
    },
    {
      "sampler": 0,
      "source": 1
    },
    {
      "sampler": 0,
      "source": 2
    }
  ]
}

